<?xml version="1.0" encoding="UTF-8"?><svg id="Layer_2" xmlns="http://www.w3.org/2000/svg" viewBox="0 0 50 50"><defs><style>.cls-1{fill:#fff;}.cls-2{fill:#eb4969;}</style></defs><g id="Layer_1-2"><g><circle class="cls-2" cx="25" cy="25" r="25"/><g><g><path class="cls-1" d="M24.79,9.28c-.07,.08-.16,.13-.24,.2-.06,.06-.12,.12-.18,.17-.07,.06-.16,.12-.23,.18-.1,.09-.2,.18-.31,.26-.27,.21-.49,.49-.76,.7-.18,.14-.35,.3-.51,.47-.19,.21-.41,.39-.6,.59-.13,.14-.26,.28-.4,.41-.12,.11-.24,.21-.34,.33-.24,.27-.5,.51-.75,.78-.44,.48-.91,.92-1.36,1.4-.08,.09-.17,.17-.26,.25s-.15,.18-.23,.27c-.14,.13-.27,.28-.41,.42-.16,.16-.33,.31-.47,.48-.12,.15-.27,.26-.39,.4l.1,.12c.17,.15,.34,.31,.51,.46,.14,.12,.29,.24,.41,.38,.12,.13,.25,.25,.38,.37,.08,.08,.16,.16,.25,.23,.21,.18,.36,.4,.58,.58,.19,.15,.36,.29,.53,.46l.09,.07c-.1,0-.2-.01-.3,0s-.19,.01-.28,.04-.18,.04-.27,.09c-.1,.05-.19,.12-.28,.18-.08,.05-.15,.08-.21,.15-.05,.06-.1,.1-.16,.16-.04,.04-.08,.09-.12,.14-.05,.05-.06,.11-.1,.16-.03,.05-.07,.1-.09,.16-.02,.05-.04,.09-.06,.14-.05,.09-.09,.19-.13,.28-.03,.06-.02,.12-.03,.19,0,.05-.03,.1-.02,.16,0,.11-.04,.21-.02,.32,.02,.12,.04,.26,.09,.38,.06,.14,.12,.27,.19,.41,.08,.16,.19,.29,.32,.42,.06,.06,.11,.11,.17,.16,.06,.06,.14,.11,.2,.17,.1,.09,.24,.17,.38,.21,.07,.02,.14,.03,.2,.05,.09,.03,.17,.05,.26,.05,.41,0,.83-.08,1.18-.3,.07-.04,.14-.06,.2-.12,.09-.07,.18-.13,.26-.2,.14-.13,.24-.25,.34-.41,.05-.08,.12-.15,.16-.23,.05-.09,.06-.18,.09-.27,.03-.08,.04-.14,.05-.22,.01-.08,.04-.16,.04-.24v.07c.35,.34,.66,.72,1.02,1.04,.26,.23,.47,.52,.73,.76,.04,.04,.08,.06,.12,.1,.03,.03,.06,.06,.09,.09,.07,.06,.14,.12,.21,.19,.08,.08,.18,.1,.25,.2s.18,.2,.28,.26l.02-.05c.28-.28,.54-.59,.84-.86,.08-.07,.13-.16,.2-.24,.05-.06,.11-.12,.16-.19,.09-.11,.18-.23,.28-.33,.05-.05,.11-.08,.16-.14,.03-.04,.06-.08,.1-.11,.07-.07,.16-.13,.22-.21,.05-.06,.1-.11,.15-.16,.06-.06,.13-.1,.18-.16h.05c-.12-.12-.27-.15-.41-.24-.13-.08-.26-.13-.39-.21-.16-.1-.3-.23-.42-.37-.1-.13-.17-.29-.24-.44s-.1-.32-.15-.48-.1-.31-.1-.49c0-.3,.13-.58,.31-.82,.41-.55,1.07-.98,1.77-.95,.43,.02,.86,.17,1.16,.49,.19,.2,.4,.37,.53,.62,.12,.22,.19,.45,.32,.66v-.03s.08-.04,.11-.07c.05-.05,.11-.12,.16-.18,.06-.06,.1-.14,.16-.19,.04-.04,.08-.06,.11-.11,.08-.12,.15-.22,.27-.31s.22-.18,.32-.29c.46-.49,.85-1.04,1.3-1.54l-.03-.21c-.22-.22-.45-.42-.66-.65-.26-.28-.55-.54-.8-.83-.14-.16-.28-.31-.42-.46-.06-.06-.11-.12-.17-.18-.1-.09-.14-.22-.25-.31-.35-.28-.64-.63-.99-.9-.14-.1-.27-.24-.4-.35-.14-.13-.29-.26-.44-.38-.12-.1-.24-.22-.35-.34-.13-.13-.26-.24-.39-.37-.16-.17-.33-.31-.49-.49-.11-.13-.25-.23-.38-.35-.08-.08-.16-.16-.24-.24-.39-.36-.8-.7-1.18-1.08"/><path class="cls-1" d="M24.63,9.13c-2.61,2.29-5.06,4.76-7.42,7.31-.09,.09-.08,.22,0,.32,.46,.51,1.02,.97,1.52,1.44,.45,.42,.88,.88,1.38,1.26l.11-.42c-1.75-.05-2.89,1.99-1.91,3.45,1.26,1.86,3.83,.85,4.18-1.13l-.44-.06c0,.46,.88,1.06,1.18,1.36,.53,.53,1.04,1.08,1.63,1.54,.09,.07,.26,.02,.31-.08,.23-.46,.85-.88,1.19-1.29,.2-.24,.72-.99,1.03-1.07,.19-.05,.21-.31,.05-.41-.57-.34-1.07-.49-1.35-1.15-.36-.82-.18-1.58,.56-2.09,.52-.35,1.2-.46,1.77-.14s.82,.91,1.11,1.47c.1,.2,.42,.1,.42-.11,0,.21,.37-.32,.42-.38,.18-.21,.37-.39,.57-.58,.27-.26,.5-.56,.73-.84,.18-.23,.53-.51,.65-.78,.07-.17,.08-.33-.02-.5-.13-.24-.48-.47-.68-.67-.24-.25-.49-.49-.72-.75-1.8-1.96-3.85-3.68-5.76-5.54-.21-.2-.52,.12-.32,.32,1.78,1.73,3.73,3.32,5.41,5.15,.41,.44,.81,.88,1.24,1.31,.1,.1,.5,.36,.47,.54-.01,.06-.5,.51-.58,.61-.36,.45-.77,.83-1.16,1.25-.19,.21-.69,.57-.69,.87l.42-.11c-.4-.77-.81-1.56-1.72-1.81-.71-.19-1.43,.02-1.98,.48-.63,.53-.91,1.18-.7,1.98,.28,1.06,.82,1.33,1.71,1.87l.05-.41c-.4,.1-.91,.8-1.16,1.1-.39,.45-1.07,.94-1.33,1.46l.31-.08c-.49-.37-.94-.84-1.36-1.28-.23-.24-.48-.46-.71-.71-.09-.09-.52-.44-.52-.53,0-.24-.39-.31-.44-.06-.29,1.66-2.47,2.58-3.45,.87-.67-1.17,.3-2.66,1.61-2.62,.24,0,.28-.29,.11-.42-.51-.38-.95-.87-1.41-1.3s-.98-.85-1.4-1.32v.32c2.36-2.54,4.81-5.02,7.42-7.31,.22-.19-.1-.5-.32-.32h0Z"/></g><g><path class="cls-1" d="M14.26,36.5c7.01-.36,14.34,.81,21.23,.09-.02-3.41,.62-6.84-.05-10.22-1.24,.02-2.68-.15-3.84,0,2.17-4.43-4.89-4.33-3.14,.09-2.28-.01-5.07-.03-7.35-.09-.62-.02,2.11,3.11-1.64,3.11s-.76-3.21-1.39-3.24c-1.19-.05-2.58-.12-3.77-.2,.43,3.3-.13,6.91,0,10.31"/><path class="cls-1" d="M14.26,36.72c7.08-.33,14.16,.79,21.23,.09,.12-.01,.22-.09,.22-.22,0-3.44,.57-6.87-.05-10.28-.02-.09-.12-.16-.22-.16-1.28,0-2.56-.13-3.84,0l.19,.34c.69-1.5,.54-3.59-1.54-3.61s-2.61,2.01-2.01,3.65l.22-.28c-1.6,0-3.21-.02-4.81-.04-.73,0-1.46-.04-2.19-.04-.13,0-.46-.06-.58,.08-.6,.73,1.14,1.9,.03,2.72-.67,.5-2.76,.56-3.06-.42-.18-.6,.28-1.26,.45-1.8,.08-.26,.18-.49-.06-.68-.26-.21-.94-.08-1.27-.09-.89-.04-1.77-.09-2.65-.15-.11,0-.24,.11-.22,.22,.4,3.43-.11,6.87,0,10.31,0,.29,.46,.29,.45,0-.11-3.44,.4-6.88,0-10.31l-.22,.22c.88,.06,1.77,.11,2.65,.15,.13,0,1.01,0,.98-.04,.02,.04-.08,.22-.08,.25-.05,.54-.47,1.02-.49,1.59-.06,1.6,2.07,1.68,3.2,1.37,1.31-.36,1.24-1.49,.85-2.55-.03-.09-.25-.47-.19-.55-.01,.02,2.27,.16,2.41,.16,1.6,.02,3.21,.03,4.81,.04,.14,0,.27-.14,.22-.28-.48-1.31-.23-2.99,1.45-3.08,1.78-.09,1.86,1.7,1.29,2.94-.06,.14,0,.36,.19,.34,.99-.1,1.97-.04,2.97-.01,.83,.02,.77,.41,.86,1.21,.06,.61,.09,1.22,.1,1.84,.02,2.32-.25,4.64-.26,6.96l.22-.22c-7.07,.7-14.15-.43-21.23-.09-.29,.01-.29,.46,0,.45h0Z"/></g><path class="cls-2" d="M24.77,26.19c.03,1.2-.1,2.4,.03,3.6l.76-.32c-1.56-1.22-4.14-.04-4.05,2.03,.09,1.89,2.59,3.39,3.95,1.7l-.7-.09c.3,.44,0,1.35-.02,1.86-.04,.65-.02,1.3-.02,1.94,0,.57,.89,.58,.89,0,0-.75-.02-1.5,.05-2.25,.06-.64,.27-1.43-.12-2.01-.15-.21-.51-.33-.7-.09-.85,1.05-2.35,.1-2.43-1.07s1.54-2.16,2.52-1.39c.26,.2,.81,.12,.76-.32-.14-1.2,0-2.4-.03-3.6-.02-.57-.91-.58-.89,0h0Z"/></g></g></g></svg>