<?xml version="1.0" encoding="UTF-8"?><svg id="Layer_2" xmlns="http://www.w3.org/2000/svg" viewBox="0 0 50 50"><defs><style>.cls-1{fill:#fff;}.cls-2{fill:#ff4b1a;}</style></defs><g id="Layer_1-2"><g><circle class="cls-2" cx="25" cy="25" r="25"/><g><path class="cls-1" d="M31.43,26.86c-1.42,2.03-3.91,3.38-6.74,3.38s-5.16-1.26-6.6-3.18c-2.48,1.1-4.22,3.54-4.31,6.41,0,.07,0,2.68,0,2.68h22.46v-2.47c0-.12,0-.23,0-.35-.14-2.99-2.1-5.51-4.79-6.47Z"/><path class="cls-1" d="M24.68,13.85c-4.03,0-7.29,3.26-7.29,7.29s3.26,7.29,7.29,7.29,7.29-3.26,7.29-7.29-3.26-7.29-7.29-7.29Zm2.88,5.89l-3.59,3.59s-.03,.03-.05,.04c-.01,.02-.02,.03-.04,.05-.24,.24-.63,.24-.86,0l-1.23-1.22c-.24-.24-.24-.63,0-.86,.24-.24,.63-.24,.86,0l.79,.79,3.24-3.24c.24-.24,.63-.24,.86,0,.24,.24,.24,.63,0,.86Z"/></g></g></g></svg>