<?xml version="1.0" encoding="UTF-8"?><svg id="Layer_2" xmlns="http://www.w3.org/2000/svg" viewBox="0 0 50 50"><defs><style>.cls-1{fill:#fff;}.cls-2{fill:#d67900;}</style></defs><g id="Layer_1-2"><g><circle class="cls-2" cx="25" cy="25" r="25"/><path class="cls-1" d="M17.43,16.27l16.55,17.04,2.16-2.07c-.23-.47-.54-.91-.92-1.28l-15.75-15.75-2.05,2.05Z"/><polygon class="cls-1" points="36.13 38.25 38.28 36.2 36.67 32.48 32.48 36.67 36.13 38.25"/><path class="cls-1" d="M18.33,13.08l-1.59-1.59c-1.02-1.02-2.68-1.02-3.7,0l-.75,.75-.05,.05-.75,.75c-1.02,1.02-1.02,2.68,0,3.7l1.59,1.59,5.25-5.25Z"/><path class="cls-1" d="M38.83,37.48l-1.35,1.35,.91,.39c.52,.23,1.05-.3,.83-.83l-.39-.91Z"/><path class="cls-1" d="M33.04,34.21L16.39,17.31l-2.17,2.17,15.75,15.75c.33,.33,.72,.62,1.13,.84l1.94-1.85Z"/></g></g></svg>