<?xml version="1.0" encoding="UTF-8"?><svg id="Layer_2" xmlns="http://www.w3.org/2000/svg" viewBox="0 0 50 50"><defs><style>.cls-1{fill:#fff;}.cls-2{fill:#15a87d;}</style></defs><g id="Layer_1-2"><g><circle class="cls-2" cx="25" cy="25" r="25"/><g><path class="cls-1" d="M21.05,37.12c.21,.91,.92,1.61,1.83,1.81l.27,.06,.58,.85c.61,.89,1.93,.89,2.55,0l.58-.85,.27-.06c.91-.2,1.62-.9,1.83-1.81l.08-.38h-8.07l.08,.38Z"/><rect class="cls-1" x="20.61" y="33.41" width="8.78" height="1.84" rx=".92" ry=".92"/><path class="cls-1" d="M25,9.5c-5.14-.07-9.33,4.07-9.33,9.2,0,2.23,.79,4.27,2.11,5.86,1.69,2.04,2.83,4.24,2.83,4.24v3.12h8.78v-3.12s1.14-2.2,2.83-4.24c1.32-1.59,2.11-3.63,2.11-5.86,0-5.12-4.19-9.27-9.33-9.2Z"/></g></g></g></svg>