<?xml version="1.0" encoding="UTF-8"?><svg id="Layer_2" xmlns="http://www.w3.org/2000/svg" viewBox="0 0 50 50"><defs><style>.cls-1{stroke-width:.13px;}.cls-1,.cls-2{fill:#fff;stroke:#fff;stroke-miterlimit:10;}.cls-3{fill:#08ab4d;}.cls-2{stroke-width:.1px;}</style></defs><g id="Layer_1-2"><g><circle class="cls-3" cx="25" cy="25" r="25"/><g><path class="cls-2" d="M15.04,24.19h.31c.4,0,.72-.32,.72-.72v-.73h12.75c.14,0,.26-.11,.26-.26,0-.14-.11-.26-.26-.26h-12.75v-1.26h15.35c.14,0,.26-.11,.26-.26,0-.14-.11-.26-.26-.26h-15.35v-.62c0-.4-.32-.72-.72-.72h-.31c-.07,0-.13-.06-.13-.13,0-.07,.06-.13,.13-.13h19.95c1.49,0,2.71,1.21,2.71,2.71v.17c0,1.49-1.21,2.71-2.71,2.71H15.04c-.07,0-.13-.06-.13-.13,0-.07,.06-.13,.13-.13Z"/><path class="cls-1" d="M20.21,27.36h12.75v-1.8H14.1c-.99,0-1.8,.81-1.8,1.8h0c0,.99,.81,1.8,1.8,1.8h18.85v-1.29h-12.75c-.14,0-.26-.11-.26-.26s.11-.26,.26-.26Z"/><g><path class="cls-1" d="M30.92,14.32H12.71v1.8h12.75c.14,0,.26,.11,.26,.26s-.11,.26-.26,.26H12.71v1.29H30.92v-3.6Z"/><path class="cls-1" d="M31.57,14.32h-.13v3.6h.13c.99,0,1.8-.81,1.8-1.8s-.81-1.8-1.8-1.8Z"/></g><g><path class="cls-2" d="M16.48,30.13c-1.31,.19-2.31,1.32-2.31,2.68v.17c0,1.36,1,2.48,2.31,2.68v-5.52Z"/><rect class="cls-2" x="16.99" y="30.1" width=".68" height="5.58"/><path class="cls-2" d="M36.82,35.42h-.31c-.4,0-.72-.32-.72-.72v-.73h-12.75c-.14,0-.26-.11-.26-.26s.11-.26,.26-.26h12.75v-1.26h-15.35c-.14,0-.26-.11-.26-.26s.11-.26,.26-.26h15.35v-.62c0-.4,.32-.72,.72-.72h.31c.07,0,.13-.06,.13-.13s-.06-.13-.13-.13H18.18v5.58h18.63c.07,0,.13-.06,.13-.13s-.06-.13-.13-.13Z"/></g></g></g></g></svg>