<?xml version="1.0" encoding="UTF-8"?><svg id="Layer_2" xmlns="http://www.w3.org/2000/svg" viewBox="0 0 50 50"><defs><style>.cls-1{fill:#fff;}.cls-2{fill:#8143bf;}</style></defs><g id="Layer_1-2"><g><circle class="cls-2" cx="25" cy="25" r="25"/><g><rect class="cls-1" x="23.67" y="19.48" width="2.69" height="17.87" rx="1.34" ry="1.34"/><rect class="cls-1" x="34.39" y="20.89" width="3.16" height="1.33" rx=".67" ry=".67"/><rect class="cls-1" x="33.5" y="23.1" width="4.05" height="1.33" rx=".67" ry=".67"/><rect class="cls-1" x="34.39" y="25.31" width="3.16" height="1.33" rx=".67" ry=".67"/><rect class="cls-1" x="34.84" y="27.52" width="2.71" height="1.33" rx=".67" ry=".67"/><path class="cls-1" d="M35.63,29.85c-.34,0-.67-.1-.96-.28-.27-.17-.55-.44-.67-.81-.27-.8,.19-1.42,.19-1.42,0,0-.55-.33-.69-.95-.15-.62,.17-1.12,.17-1.12,0,0-1.06-.51-1.06-1.47,.05-1.16,1.06-1.51,1.06-1.51,0,0-.37-.76-.03-1.47,.22-.45,.63-.68,.91-.78,.15-.06,.3-.08,.45-.08h1.11v-3.57c0-.58-.61-.97-1.14-.71l-6.08,3.01c-.99,.49-1.62,1.51-1.62,2.62v14.6c0,.61,.64,1.01,1.19,.74l6.36-3.15c.79-.39,1.29-1.2,1.29-2.08v-1.56h-.49Z"/><rect class="cls-1" x="12.45" y="20.89" width="3.16" height="1.33" rx=".67" ry=".67" transform="translate(28.06 43.11) rotate(180)"/><rect class="cls-1" x="12.45" y="23.1" width="4.05" height="1.33" rx=".67" ry=".67" transform="translate(28.95 47.53) rotate(-180)"/><rect class="cls-1" x="12.45" y="25.31" width="3.16" height="1.33" rx=".67" ry=".67" transform="translate(28.06 51.95) rotate(-180)"/><rect class="cls-1" x="12.45" y="27.52" width="2.71" height="1.33" rx=".67" ry=".67" transform="translate(27.61 56.37) rotate(-180)"/><path class="cls-1" d="M14.37,29.85c.34,0,.67-.1,.96-.28,.27-.17,.55-.44,.67-.81,.27-.8-.19-1.42-.19-1.42,0,0,.55-.33,.69-.95,.15-.62-.17-1.12-.17-1.12,0,0,1.06-.51,1.06-1.47-.05-1.16-1.06-1.51-1.06-1.51,0,0,.37-.76,.03-1.47-.22-.45-.63-.68-.91-.78-.15-.06-.3-.08-.45-.08h-1.11v-3.57c0-.58,.61-.97,1.14-.71l6.08,3.01c.99,.49,1.62,1.51,1.62,2.62v14.6c0,.61-.64,1.01-1.19,.74l-6.36-3.15c-.79-.39-1.29-1.2-1.29-2.08v-1.56h.49Z"/><path class="cls-1" d="M15.68,13.06v1.72c0,.16,.09,.31,.24,.38l7.17,3.59c.07,.04,.15,.05,.23,.04l.88-.09c.22-.02,.38-.2,.38-.42v-.19c0-.08-.02-.16-.06-.22-.31-.51-1.93-2.64-8.17-5.16,0,0-.29-.14-.51,.02-.11,.08-.16,.2-.16,.33Z"/><path class="cls-1" d="M34.39,13.06v1.72c0,.16-.09,.31-.24,.38l-7.17,3.59c-.07,.04-.15,.05-.23,.04l-.88-.09c-.22-.02-.38-.2-.38-.42v-.19c0-.08,.02-.16,.06-.22,.31-.51,1.93-2.64,8.17-5.16,0,0,.29-.14,.51,.02,.11,.08,.16,.2,.16,.33Z"/></g></g></g></svg>